#N canvas 289 136 968 578 12;
#X obj 191 96 / 127;
#X obj 132 38 notein \$1, f 39;
#X text 337 66 args: chan number;
#X obj 107 298 stripnote;
#X obj 97 387 mtof;
#X obj 65 221 spigot 0, f 28;
#X obj 200 253 spigot 0, f 28;
#X obj 39 171 spigot 0;
#X obj 222 169 spigot 0;
#X text 387 87 autotrig len (=0 don't stripnote);
#X obj 297 117 f \$2;
#X obj 379 185 == 0;
#X obj 95 487 outlet;
#X obj 309 491 outlet~;
#X obj 446 273 pdkvabs/dkargs;
#X obj 515 27 loadbang;
#X obj 446 326 list split 2;
#X msg 252 325 level \$1;
#X msg 330 355 dur \$1;
#X obj 222 285 t b f;
#X obj 400 412 unpack f f f f;
#X text 382 101 adsr params;
#X obj 642 25 inlet;
#X text 688 24 autotrig len;
#X obj 800 23 inlet;
#X text 846 26 adsr params;
#X text 515 142 inlet: autotrig len;
#X text 567 167 adsr params;
#X text 586 248 outlet: freq;
#X text 641 274 env;
#X obj 642 49 t f f;
#X obj 677 80 sel 0;
#X msg 677 104 0;
#X obj 311 461 pdkvabs/dkvanadsr~ 3 5 0.75 125;
#X obj 168 493 outlet;
#X text 53 469 freq;
#X text 191 462 vel;
#X text 420 492 env;
#X connect 0 0 6 0;
#X connect 0 0 8 0;
#X connect 1 0 5 0;
#X connect 1 0 7 0;
#X connect 1 1 0 0;
#X connect 3 0 4 0;
#X connect 3 1 33 0;
#X connect 3 1 34 0;
#X connect 4 0 12 0;
#X connect 5 0 3 0;
#X connect 6 0 3 1;
#X connect 7 0 4 0;
#X connect 8 0 19 0;
#X connect 10 0 11 0;
#X connect 10 0 8 1;
#X connect 10 0 7 1;
#X connect 10 0 18 0;
#X connect 11 0 5 1;
#X connect 11 0 6 1;
#X connect 14 0 16 0;
#X connect 15 0 10 0;
#X connect 15 0 14 0;
#X connect 16 1 20 0;
#X connect 17 0 33 0;
#X connect 18 0 33 0;
#X connect 19 0 33 0;
#X connect 19 1 17 0;
#X connect 19 1 34 0;
#X connect 20 0 33 1;
#X connect 20 1 33 2;
#X connect 20 2 33 3;
#X connect 20 3 33 4;
#X connect 22 0 30 0;
#X connect 24 0 20 0;
#X connect 30 0 31 0;
#X connect 30 1 10 0;
#X connect 31 0 32 0;
#X connect 32 0 0 0;
#X connect 33 0 13 0;
