#N canvas 453 268 748 487 12;
#X obj 41 217 pdklist/pdkl-defaults;
#X obj 53 156 t b l;
#X obj 43 289 outlet;
#X obj 87 42 loadbang;
#X obj 41 241 unpack f f f f, f 50;
#X obj 137 294 outlet;
#X obj 266 295 outlet;
#X obj 369 292 outlet;
#X obj 68 86 pdkvabs/dkargs 2;
#X obj 109 156 bang;
#X obj 489 54 inlet;
#X text 537 58 new adsr;
#X msg 42 181 5 5 75 125;
#X obj 71 121 list split 3;
#X connect 0 0 4 0;
#X connect 1 0 12 0;
#X connect 1 1 0 1;
#X connect 3 0 8 0;
#X connect 4 0 2 0;
#X connect 4 1 5 0;
#X connect 4 2 6 0;
#X connect 4 3 7 0;
#X connect 8 0 13 0;
#X connect 9 0 1 0;
#X connect 10 0 4 0;
#X connect 12 0 0 0;
#X connect 13 1 1 0;
#X connect 13 2 9 0;
