#N canvas 975 167 960 742 12;
#X obj 58 404 pdko-midienv \$1 \$2;
#X obj 58 494 *~;
#X obj 391 82 inlet;
#X text 439 83 autotrig len;
#X obj 697 85 inlet;
#X text 745 83 adsr params;
#X obj 852 83 inlet;
#X text 902 87 phase;
#X obj 56 636 outlet~;
#X floatatom 58 224 5 0 999999 0 len - -;
#X floatatom 60 249 5 0 99999 0 att - -;
#X floatatom 124 250 5 0 99999 0 dec - -;
#X floatatom 188 251 5 0 100 0 sus - -;
#X floatatom 250 250 5 0 99999 0 rel - -;
#X obj 239 231 tgl 15 0 empty empty mute 17 7 0 12 -262144 -1 -1 0
1;
#X obj 88 365 pack f f f f, f 35;
#X obj 132 308 t b f;
#X obj 196 307 t b f;
#X obj 260 302 t b f;
#X obj 349 174 f \$2;
#X obj 338 48 loadbang;
#X obj 57 568 *~;
#X msg 135 514 \$1 2;
#X obj 246 408 == 0;
#X obj 135 538 line~;
#X msg 302 110 0;
#X obj 70 168 pdko-adsrdefaults2;
#X obj 594 73 inlet;
#X text 641 78 duty;
#X obj 188 274 / 100;
#X floatatom 125 224 5 0 100 0 duty - -;
#X obj 356 286 / 100;
#X obj 144 133 pdko-dutyarg;
#X obj 58 459 pdksynth/dkdutysaw~, f 47;
#X connect 0 0 33 0;
#X connect 0 2 1 1;
#X connect 1 0 21 0;
#X connect 2 0 19 0;
#X connect 4 0 26 0;
#X connect 6 0 33 2;
#X connect 9 0 0 0;
#X connect 10 0 15 0;
#X connect 11 0 16 0;
#X connect 12 0 29 0;
#X connect 13 0 18 0;
#X connect 14 0 23 0;
#X connect 15 0 0 1;
#X connect 16 0 15 0;
#X connect 16 1 15 1;
#X connect 17 0 15 0;
#X connect 17 1 15 2;
#X connect 18 0 15 0;
#X connect 18 1 15 3;
#X connect 19 0 9 0;
#X connect 20 0 19 0;
#X connect 20 0 25 0;
#X connect 21 0 8 0;
#X connect 22 0 24 0;
#X connect 23 0 22 0;
#X connect 24 0 21 1;
#X connect 25 0 14 0;
#X connect 26 0 10 0;
#X connect 26 1 11 0;
#X connect 26 2 12 0;
#X connect 26 3 13 0;
#X connect 27 0 32 0;
#X connect 29 0 17 0;
#X connect 30 0 31 0;
#X connect 31 0 33 1;
#X connect 32 0 30 0;
#X connect 33 0 1 0;
#X coords 0 -1 1 1 265 70 1 30 200;
