#N canvas 393 138 960 742 12;
#X obj 58 404 pdko-midienv \$1 \$2;
#X obj 58 494 *~;
#X obj 391 82 inlet;
#X text 439 83 autotrig len;
#X obj 575 79 inlet;
#X text 623 77 adsr params;
#X obj 56 636 outlet~;
#X floatatom 60 224 5 0 999999 0 len - -;
#X floatatom 60 249 5 0 99999 0 att - -;
#X floatatom 124 250 5 0 99999 0 dec - -;
#X floatatom 188 251 5 0 100 0 sus - -;
#X floatatom 250 250 5 0 99999 0 rel - -;
#X obj 239 231 tgl 15 0 empty empty mute 17 7 0 12 -262144 -1 -1 0
1;
#X obj 149 170 pdko-adsrdefaults;
#X obj 88 365 pack f f f f, f 35;
#X obj 132 308 t b f;
#X obj 196 307 t b f;
#X obj 260 302 t b f;
#X obj 349 174 f \$2;
#X obj 338 48 loadbang;
#X obj 57 568 *~;
#X msg 135 514 \$1 2;
#X obj 246 408 == 0;
#X obj 135 538 line~;
#X msg 302 110 0;
#X obj 188 274 / 100;
#X obj 58 459 pdksynth/dkdesaw~, f 47;
#X connect 0 0 26 0;
#X connect 0 2 1 1;
#X connect 1 0 20 0;
#X connect 2 0 18 0;
#X connect 4 0 13 0;
#X connect 7 0 0 0;
#X connect 8 0 14 0;
#X connect 9 0 15 0;
#X connect 10 0 25 0;
#X connect 11 0 17 0;
#X connect 12 0 22 0;
#X connect 13 0 8 0;
#X connect 13 1 9 0;
#X connect 13 2 10 0;
#X connect 13 3 11 0;
#X connect 14 0 0 1;
#X connect 15 0 14 0;
#X connect 15 1 14 1;
#X connect 16 0 14 0;
#X connect 16 1 14 2;
#X connect 17 0 14 0;
#X connect 17 1 14 3;
#X connect 18 0 7 0;
#X connect 19 0 18 0;
#X connect 19 0 24 0;
#X connect 20 0 6 0;
#X connect 21 0 23 0;
#X connect 22 0 21 0;
#X connect 23 0 20 1;
#X connect 24 0 12 0;
#X connect 25 0 16 0;
#X connect 26 0 1 0;
#X coords 0 -1 1 1 265 70 1 30 200;
